<?xml version="1.0" encoding="utf-8"?>
<!-- Generator: Adobe Illustrator 19.2.1, SVG Export Plug-In . SVG Version: 6.00 Build 0)  -->
<svg version="1.1" id="Layer_1" xmlns="http://www.w3.org/2000/svg" xmlns:xlink="http://www.w3.org/1999/xlink" x="0px" y="0px"
	 viewBox="0 0 244.1 284" style="enable-background:new 0 0 244.1 284;" xml:space="preserve">
<style type="text/css">
	.st0{fill:#F04D23;}
</style>
<g>
	<path class="st0" d="M0,230.7c18-22,36-44.1,54-66.1c3-3.6,5.9-7.3,9.1-10.7c2.2-2.4,2.3-4.2,0.3-6.8c-12.6-17-24.9-34.2-37.7-51
		c-5.7-7.4-6.7-15-3.4-23.4c5.6-14,20.8-29.1,40.8-27c8.9,0.9,15.7,5.1,20.9,12.1c9.5,12.6,19.1,25.2,30.1,39.7
		c1-1.9,1.5-3.8,2.7-5.1c27.5-29.7,55.1-59.3,82.6-89c3-3.3,6.2-4.3,10.2-2.5c2.3,1,4.7,1.8,6.7,3.2c14.2,9.7,23.2,23.2,27.2,39.8
		c1.6,6.7-0.7,12.5-5.6,17.7c-28,29.7-55.7,59.7-83.6,89.5c-2.6,2.8-2.8,4.7-0.9,8.1c10.9,19.8,21.8,39.7,32.2,59.7
		c11.7,22.5-0.7,47.1-25.8,51.4c-6,1-12.5,0.4-18.6-0.7c-5.9-1.1-10.1-5.3-12.9-10.8c-6.9-13.5-13.9-26.9-21-40.3
		c-1.4-2.6-3-5.1-4.8-8.2c-11.4,13.6-22.4,26.8-33.3,40c-7.4,9-14.9,18-21.9,27.2c-5.7,7.4-11,8.8-19.9,2.8
		c-13.7-9.3-22.1-22.8-26.3-38.8c-0.3-1.3-0.8-2.5-1.2-3.8C0,235.3,0,233,0,230.7z"/>
</g>
</svg>
