<?xml version="1.0" encoding="utf-8"?>
<!-- Generator: Adobe Illustrator 19.2.1, SVG Export Plug-In . SVG Version: 6.00 Build 0)  -->
<svg version="1.1" id="Layer_1" xmlns="http://www.w3.org/2000/svg" xmlns:xlink="http://www.w3.org/1999/xlink" x="0px" y="0px"
	 viewBox="0 0 82.7 82.7" style="enable-background:new 0 0 82.7 82.7;" xml:space="preserve">
<path id="XMLID_6_" d="M41.7,31.2c2.9,0,5.5,1.2,7.4,3.1H62V29l0,0c0-4.4-3.6-8-8-8H32.1v10.1h-1.6V21h-0.9c-0.1,0-0.1,0-0.2,0v10.1
	h-1.6v-9.9c-0.4,0.1-0.8,0.2-1.2,0.4v9.5H25v-8.6c-2,1.4-3.4,3.8-3.4,6.5v5.3h12.8C36.2,32.3,38.8,31.2,41.7,31.2z M51.4,25.6
	c0-0.7,0.6-1.3,1.3-1.3H57c0.7,0,1.3,0.6,1.3,1.3V30c0,0.7-0.6,1.3-1.3,1.3h-4.3c-0.7,0-1.3-0.6-1.3-1.3V25.6z"/>
<path id="XMLID_3_" d="M47,35.5c-0.6-0.5-1.2-0.9-2-1.3c-1-0.5-2.1-0.7-3.3-0.7s-2.3,0.3-3.3,0.7c-0.7,0.3-1.4,0.8-2,1.3
	c-1.7,1.5-2.7,3.6-2.7,6c0,4.4,3.6,8,8,8s8-3.6,8-8C49.7,39.1,48.7,37,47,35.5z M41.8,47.4c-3.3,0-5.9-2.6-5.9-5.9
	c0-3.3,2.6-5.9,5.9-5.9s5.9,2.6,5.9,5.9C47.7,44.8,45,47.4,41.8,47.4z"/>
<path id="XMLID_2_" d="M29.5,61.7H54c4.4,0,8-3.6,8-8V35.5H50.2c1.2,1.7,1.9,3.8,1.9,6c0,5.7-4.6,10.4-10.4,10.4
	c-5.7,0-10.4-4.6-10.4-10.4c0-2.2,0.7-4.3,1.9-6H21.5v18.2C21.5,58.1,25.1,61.7,29.5,61.7z"/>
</svg>
