<?xml version="1.0" encoding="utf-8"?>
<!-- Generator: Adobe Illustrator 19.2.1, SVG Export Plug-In . SVG Version: 6.00 Build 0)  -->
<svg version="1.1" id="Layer_1" xmlns="http://www.w3.org/2000/svg" xmlns:xlink="http://www.w3.org/1999/xlink" x="0px" y="0px"
	 viewBox="0 0 1000 80" style="enable-background:new 0 0 1000 80;" xml:space="preserve">
<style type="text/css">
	.st0{fill:#F04D23;}
	.st1{fill:#FFFFFF;}
</style>
<g id="FrE5hE.tif">
	<g>
		<path class="st0" d="M1000,8c0,0.7,0,1.3,0,2c-3.7,10.5-12.1,16.9-20.3,23.3c-11,8.6-22.6,15.8-37.4,15.8
			c-89.3-0.5-178.6-0.3-267.5,8.8c-27.6,2.8-55.1,6.9-82.7,10.4c-24.4,3.2-48.8,6.5-73.2,9.6c-8.2,1-16.5,1.4-24.8,2.1
			c-5.3,0-10.7,0-16,0c-0.9-0.3-1.9-0.7-2.8-0.8c-15.5-2.1-31-4.2-46.5-6.3c-16.8-2.3-33.6-6.8-50.3-6.5c-20,0.3-39.9,4.5-59.8,7
			c-15.1,1.9-30.1,3-45.3,0.5c-17.1-2.8-32.8-9.5-48.8-15.8c-16.3-6.4-32.9-11.6-50.5-13.3c-22.7-2.2-45.3-0.4-67.8,2.5
			C74.1,51.4,42,56.4,9.9,60.9c-2.3,0.3-6.2-0.1-7-1.5C2,57.6,2.8,54,4.1,52.1c3.1-4.3,6.8-8.2,10.6-11.9C26,29.5,38.6,21,54.3,18.2
			c45.1-8.1,90.4-14.7,136.2-16.4c15.4-0.6,30.9,0.7,46.3,2.1c19.8,1.8,37.8,10.2,56,17.4c25.1,9.9,50.5,13.7,77.2,8.1
			c13.5-2.8,27.2-4.7,40.9-6.2c21.8-2.4,43.2,1.4,64.4,5.4c19.6,3.7,39.2,7.6,59.3,7.6c29.6,0,58.7-4.4,87.9-8.5
			c33.9-4.8,67.9-10.1,102-13.2c39.3-3.6,78.7-5.9,118.2-7c50.6-1.4,101.3-1.1,152-1.4C996.4,6.2,998.2,7.4,1000,8z"/>
		<path class="st1" d="M1000,8c-1.8-0.6-3.6-1.8-5.3-1.8c-50.7,0.3-101.3-0.1-152,1.4c-39.4,1.1-78.9,3.5-118.2,7
			c-34.1,3.1-68,8.4-102,13.2c-29.2,4.1-58.3,8.5-87.9,8.5c-20.1,0-39.7-3.8-59.3-7.6c-21.3-4-42.7-7.9-64.4-5.4
			c-13.7,1.5-27.4,3.4-40.9,6.2c-26.7,5.6-52.1,1.8-77.2-8.1c-18.2-7.2-36.2-15.7-56-17.4c-15.4-1.4-30.9-2.7-46.3-2.1
			c-45.8,1.7-91.1,8.3-136.2,16.4C38.6,21,26,29.5,14.8,40.3c-3.8,3.7-7.5,7.6-10.6,11.9C2.8,54,2,57.6,2.9,59.4
			c0.8,1.4,4.6,1.9,7,1.5c32.1-4.5,64.2-9.5,96.3-13.6c22.5-2.8,45.1-4.7,67.8-2.5c17.5,1.7,34.2,6.9,50.5,13.3
			c15.9,6.2,31.7,13,48.8,15.8c15.1,2.5,30.2,1.4,45.3-0.5c19.9-2.6,39.9-6.8,59.8-7c16.7-0.2,33.5,4.2,50.3,6.5
			c15.5,2.1,31,4.2,46.5,6.3c1,0.1,1.9,0.5,2.8,0.8c-159.3,0-318.7,0-478,0C0,53.3,0,26.7,0,0c333.3,0,666.7,0,1000,0
			C1000,2.7,1000,5.3,1000,8z"/>
		<path class="st1" d="M494,80c8.3-0.7,16.6-1,24.8-2.1c24.4-3.1,48.8-6.4,73.2-9.6c27.6-3.6,55.1-7.6,82.7-10.4
			c89-9.1,178.2-9.3,267.5-8.8c14.8,0.1,26.4-7.2,37.4-15.8c8.2-6.4,16.7-12.8,20.3-23.3c0,23.3,0,46.7,0,70
			C831.3,80,662.7,80,494,80z"/>
	</g>
</g>
</svg>
