<?xml version="1.0" encoding="utf-8"?>
<!-- Generator: Adobe Illustrator 19.2.1, SVG Export Plug-In . SVG Version: 6.00 Build 0)  -->
<svg version="1.1" id="Layer_1" xmlns="http://www.w3.org/2000/svg" xmlns:xlink="http://www.w3.org/1999/xlink" x="0px" y="0px"
	 viewBox="0 0 82.7 82.7" style="enable-background:new 0 0 82.7 82.7;" xml:space="preserve">
<path id="XMLID_10_" d="M22.9,56.2C26.6,58.6,31,60,35.7,60C51.2,60,60,46.9,59.4,35.1c1.6-1.2,3-2.6,4.2-4.3
	c-1.5,0.7-3.1,1.1-4.8,1.3c1.7-1,3-2.7,3.7-4.6c-1.6,1-3.4,1.7-5.3,2c-1.5-1.6-3.7-2.6-6.1-2.6c-5.4,0-9.3,5-8.1,10.3
	c-6.9-0.3-13.1-3.7-17.2-8.7c-2.2,3.8-1.1,8.7,2.6,11.1c-1.4,0-2.7-0.4-3.8-1c-0.1,3.9,2.7,7.5,6.7,8.3c-1.2,0.3-2.5,0.4-3.8,0.1
	c1.1,3.3,4.1,5.7,7.8,5.8C31.7,55.5,27.3,56.7,22.9,56.2z"/>
</svg>
